<svg id="business-male-team" xmlns="http://www.w3.org/2000/svg" width="81.005" height="86.869" viewBox="0 0 81.005 86.869">
  <g id="Group_11" data-name="Group 11" transform="translate(0 0)">
    <path id="Path_14" data-name="Path 14" d="M33.959,35.218c3.692,0,6.687-4.283,6.687-7.978a6.689,6.689,0,1,0-13.377,0C27.269,30.932,30.264,35.218,33.959,35.218Z" transform="translate(-18.618 -11.821)" fill="#4085f5"/>
    <path id="Path_15" data-name="Path 15" d="M152.428,35.218c3.693,0,6.688-4.283,6.688-7.978a6.689,6.689,0,1,0-13.377,0C145.739,30.932,148.734,35.218,152.428,35.218Z" transform="translate(-86.766 -11.821)" fill="#4085f5"/>
    <path id="Path_16" data-name="Path 16" d="M26.859,84.972A5.924,5.924,0,0,1,25.591,80.6L28.2,57.086a29.132,29.132,0,0,0-5.959-.725,39.415,39.415,0,0,0-11.288,2.206c-.044.013-.084.028-.127.045-.023.01-.058.021-.066.023-.053.02-.088.061-.138.085a2.57,2.57,0,0,0-.7.425,2.5,2.5,0,0,0-.245.288,2.447,2.447,0,0,0-.357.493,2.54,2.54,0,0,0-.164.522,2.406,2.406,0,0,0-.121.381L6.918,79.877A2.648,2.648,0,0,0,9.254,82.8a2.9,2.9,0,0,0,.3.015,2.643,2.643,0,0,0,2.625-2.354L14.1,63.112c.226-.066.472-.141.734-.215V80.953l-2.106,26.183a3.173,3.173,0,0,0,2.91,3.416c.088.008.173.011.257.011a3.172,3.172,0,0,0,3.162-2.918l1.9-23.666a3.2,3.2,0,0,0,1.279.274,3.108,3.108,0,0,0,1.281-.274l1.9,23.666a3.171,3.171,0,0,0,3.159,2.918c.085,0,.172,0,.257-.011a3.173,3.173,0,0,0,2.91-3.416l-1.618-20.11A5.88,5.88,0,0,1,26.859,84.972Z" transform="translate(-6.901 -32.421)" fill="#4085f5"/>
    <path id="Path_17" data-name="Path 17" d="M161.8,60.83a2.845,2.845,0,0,0-.116-.366,2.667,2.667,0,0,0-.176-.546,2.251,2.251,0,0,0-.295-.4,2.467,2.467,0,0,0-.326-.384,103.661,103.661,0,0,1-.815-.5c-.257-.09-6.34-2.272-11.484-2.272a29.176,29.176,0,0,0-5.959.731l2.612,23.5a5.9,5.9,0,0,1-4.547,6.424l-1.619,20.112a3.177,3.177,0,0,0,2.91,3.416c.088.008.173.01.259.01a3.172,3.172,0,0,0,3.16-2.92l1.906-23.663a3.1,3.1,0,0,0,2.561,0l1.9,23.663a3.174,3.174,0,0,0,3.16,2.92c.085,0,.171,0,.257-.01a3.174,3.174,0,0,0,2.91-3.416L156,80.949V62.895c.264.074.509.149.734.214l1.929,17.35a2.646,2.646,0,0,0,2.625,2.356,2.867,2.867,0,0,0,.295-.02,2.643,2.643,0,0,0,2.335-2.92Z" transform="translate(-82.928 -32.422)" fill="#4085f5"/>
    <path id="Path_18" data-name="Path 18" d="M90.912,18.357c4.618,0,8.368-5.362,8.368-9.987a8.372,8.372,0,0,0-16.743,0C82.537,13,86.288,18.357,90.912,18.357Z" transform="translate(-50.41)" fill="#4085f5"/>
    <path id="Path_19" data-name="Path 19" d="M92.507,77.94a3.309,3.309,0,0,0,2.923-3.655L92.781,50.448a3.643,3.643,0,0,0-.145-.457,3.256,3.256,0,0,0-.22-.681,2.972,2.972,0,0,0-.373-.508,2.114,2.114,0,0,0-1.03-.86,3.185,3.185,0,0,0-.4-.242,52.623,52.623,0,0,0-13.087-2.813l-.842,1.682h-.021L78.9,63.939l-2.648,4.626L73.6,63.939l2.23-17.367H75.8l-.829-1.66a52.142,52.142,0,0,0-12.853,2.7c-.056.016-.106.036-.159.056-.031.013-.071.026-.084.031-.068.025-.111.078-.173.106a2.292,2.292,0,0,0-1.183.9,2.246,2.246,0,0,0-.655,1.267,3.053,3.053,0,0,0-.151.477L57.068,74.286a3.309,3.309,0,0,0,2.924,3.655,2.566,2.566,0,0,0,.371.023,3.315,3.315,0,0,0,3.287-2.948l2.412-21.708c.281-.085.591-.175.92-.27v22.6L64.347,108.4a3.973,3.973,0,0,0,3.642,4.278c.109.008.217.013.323.013a3.974,3.974,0,0,0,3.957-3.655L74.65,79.423a3.929,3.929,0,0,0,3.2,0l2.381,29.612a3.973,3.973,0,0,0,3.956,3.655c.106,0,.215-.006.323-.013a3.971,3.971,0,0,0,3.641-4.278L85.517,75.636v-22.6c.328.093.639.182.921.27l2.411,21.708a3.312,3.312,0,0,0,3.287,2.948A3.494,3.494,0,0,0,92.507,77.94Z" transform="translate(-35.748 -25.821)" fill="#4085f5"/>
  </g>
</svg>
