<svg id="offer" xmlns="http://www.w3.org/2000/svg" width="80.678" height="80.678" viewBox="0 0 80.678 80.678">
  <path id="Path_29" data-name="Path 29" d="M2,48H14.1V66.825H2Z" transform="translate(-2 13.854)" fill="#4085f5"/>
  <path id="Path_30" data-name="Path 30" d="M54.107,2c-4.921,0-7.893,4.128-9.412,7.18C43.175,6.128,40.2,2,35.282,2a4.782,4.782,0,0,0-5,4.652c0,2.017,1.3,3.926,3.577,5.231,2.555,1.479,6.2,2.219,10.838,2.219s8.3-.74,10.838-2.219c2.272-1.3,3.577-3.214,3.577-5.231A4.782,4.782,0,0,0,54.107,2ZM35.2,9.557c-1.412-.82-2.232-1.869-2.232-2.9a2.114,2.114,0,0,1,2.313-1.963c3.98,0,6.387,4.2,7.463,6.669C38.778,11.144,36.479,10.3,35.2,9.557Zm18.986,0c-1.264.74-3.577,1.587-7.543,1.8,1.062-2.474,3.456-6.669,7.463-6.669A2.114,2.114,0,0,1,56.42,6.652C56.42,7.688,55.613,8.737,54.188,9.557Z" transform="translate(7.746 -2)" fill="#4085f5"/>
  <path id="Path_31" data-name="Path 31" d="M41.153,55.718a7.4,7.4,0,0,1,7.116,9.412h3.723l16.1-7.429a6.948,6.948,0,0,1,2.9-.639h.2c.071,0,.137.019.208.022V10H23V55.718ZM27.137,27.765,39.44,30,45.031,47.9ZM47.2,45.831,42.3,30.149l9.8.016Zm18.159,6.1a8.061,8.061,0,0,0-5.806,5.806.257.257,0,0,1-.5,0,8.061,8.061,0,0,0-5.806-5.806.257.257,0,0,1,0-.5,8.061,8.061,0,0,0,5.806-5.806.257.257,0,0,1,.5,0,8.061,8.061,0,0,0,5.806,5.806A.257.257,0,0,1,65.363,51.935ZM49.375,47.9,54.966,30l12.3-2.237ZM67.561,24.979,56.188,27.047l4.136-9.3Zm-9.728-8.256-4.041,9.092-5.05-9.092ZM51.641,27.48H42.766L47.2,19.493ZM45.665,16.723l-5.05,9.092-4.041-9.092ZM34.083,17.742l4.136,9.3L26.846,24.979Z" transform="translate(5.237 0.757)" fill="#4085f5"/>
  <path id="Path_32" data-name="Path 32" d="M74.645,47.345h-.2a4.243,4.243,0,0,0-1.778.39L56.029,55.412H44.6A4.706,4.706,0,1,0,44.6,46H26.446l-5.379,5.379H13V66.17H57.373L76.725,55.285a4.243,4.243,0,0,0-2.08-7.94ZM43.927,58.1H34.514a1.345,1.345,0,1,1,0-2.689h9.412a1.345,1.345,0,1,1,0,2.689Z" transform="translate(1.791 13.164)" fill="#4085f5"/>
</svg>
