<svg xmlns="http://www.w3.org/2000/svg" width="119.096" height="116.362" viewBox="0 0 119.096 116.362">
  <g id="PlH8l3" transform="translate(-6553.207 -2800.607)">
    <g id="Group_13790" data-name="Group 13790" transform="translate(6553.207 2800.607)">
      <path id="Path_65" data-name="Path 65" d="M6553.207,2888.975c2.831-3.54,6.253-6.509,9.418-9.725a3.422,3.422,0,0,1,4.668-.194c.545.415.794.333,1.2-.117a7.107,7.107,0,0,0,1.954-4.711c.055-2.128-.126-4.261.116-6.387a9.51,9.51,0,0,1,2.769-5.741q4-4.052,8.052-8.059a8.649,8.649,0,0,1,5.092-2.554c.778-.1.908-.317.575-1.053a8.355,8.355,0,0,1-.625-3.514c.012-3.642.019-7.285,0-10.927a9.9,9.9,0,0,1,3.029-7.3c1.12-1.127,2.254-2.24,3.363-3.378a6.956,6.956,0,0,0,2.052-4.9c.01-.554-.109-.778-.715-.892a3.68,3.68,0,0,1-3.245-4q-.017-5.464,0-10.928a3.73,3.73,0,0,1,4-3.99q15.984-.01,31.969,0a3.692,3.692,0,0,1,4,3.972q.018,5.522,0,11.044a3.613,3.613,0,0,1-3.092,3.878c-.495.118-.691.271-.708.817a7.505,7.505,0,0,0,1.755,5.38,10.391,10.391,0,0,1,2.473,7.066c-.014,6.122,0,12.245,0,18.367a2.229,2.229,0,0,0,.021.807c.246.592.447,1.23,1.382.724a9.314,9.314,0,0,1,11.77,1.734c2.447,2.43,4.865,4.89,7.314,7.317a10.136,10.136,0,0,1,3.128,6.065c.035.277-.11.679.494.717,1.563.1,2.238.7,2.163,1.763-.08,1.14-.979,1.723-2.486,1.6-.238,2.571-.061,5.017,1.852,7.033.439.463.688.6,1.289.135a3.484,3.484,0,0,1,4.755.326q4.148,4.072,8.213,8.226a3.571,3.571,0,0,1-.036,5.211q-11.431,11.5-22.91,22.957a3.61,3.61,0,0,1-5.459-.057q-3.959-3.933-7.885-7.9a3.593,3.593,0,0,1-.487-4.936c.313-.452.283-.643-.064-1.019a7.774,7.774,0,0,0-5.276-2.608,9.235,9.235,0,0,1-5.823-2.576c-1.987-1.9-3.933-3.848-5.871-5.8a1.724,1.724,0,0,1-.12-2.656,1.771,1.771,0,0,1,2.585.2q2.7,2.638,5.361,5.325a6.619,6.619,0,0,0,4.291,2.055,10.539,10.539,0,0,1,7.135,3.46c.5.545.778.56,1.319.013q8.263-8.341,16.6-16.611c.543-.54.434-.789-.032-1.265a10.235,10.235,0,0,1-2.99-7.559q.03-2.325,0-4.65a6.428,6.428,0,0,0-1.872-4.612c-2.65-2.666-5.288-5.343-7.973-7.974a5.573,5.573,0,0,0-7.015-.889c1.377,1.347,2.739,2.661,4.079,4,1.044,1.042,1.147,2.035.34,2.83-.776.766-1.812.628-2.835-.389-1.589-1.579-3.171-3.164-4.77-4.761-.34.3-.173.665-.175.978-.014,3.41-.115,6.823.016,10.229.188,4.882-4.039,7.786-8.019,6.4a1.933,1.933,0,0,0-.424-.023c0,1.179.01,2.336,0,3.492-.044,4.615-3.494,7.268-7.943,6.071-.449-.121-.6-.074-.735.337a5.791,5.791,0,0,1-3.833,3.89,2.694,2.694,0,0,0-.985.789q-3.331,3.326-6.652,6.664a9.917,9.917,0,0,1-6.459,3.053,7.632,7.632,0,0,0-5.153,2.6c-.367.4-.335.591-.046,1.02a3.581,3.581,0,0,1-.432,4.854q-4,4.059-8.049,8.061a3.588,3.588,0,0,1-5.373-.053q-7.5-7.466-14.948-14.974c-.906-.911-.979-1.9-.252-2.655.766-.793,1.784-.727,2.739.228q7.2,7.188,14.364,14.4c.62.626.957.709,1.614.025,2.307-2.4,4.674-4.751,7.057-7.08.521-.508.495-.777-.006-1.276q-11.069-11.041-22.1-22.127c-.444-.446-.7-.532-1.187-.037q-3.618,3.7-7.309,7.323c-.455.448-.534.729-.02,1.189.779.7,1.5,1.456,2.226,2.212a1.779,1.779,0,0,1,.172,2.587,1.732,1.732,0,0,1-2.659-.157,23.986,23.986,0,0,1-3.7-4.1Zm52.861-22.559c0,5.424-.011,10.849.006,16.273.007,1.789.99,2.858,2.514,2.835,1.47-.022,2.4-1.066,2.414-2.812.017-1.587-.049-3.176-.05-4.763q-.007-13.485,0-26.968a10.349,10.349,0,0,1,.016-1.045,1.806,1.806,0,0,1,1.783-1.783,1.763,1.763,0,0,1,1.741,1.8c.029.347.011.7.011,1.046q0,12.437,0,24.875c0,1.084-.039,2.172.017,3.254a2.3,2.3,0,0,0,2.249,2.22,2.334,2.334,0,0,0,2.514-1.926,8.108,8.108,0,0,0,.1-1.5q.009-13.775.007-27.549c0-1.416.594-2.158,1.679-2.187,1.14-.03,1.78.745,1.807,2.2.01.542,0,1.085,0,1.627,0,5.657-.008,11.314.007,16.971,0,1.759.918,2.79,2.4,2.809,1.522.02,2.514-1.064,2.517-2.84q.013-18.25,0-36.5a6.549,6.549,0,0,0-1.555-4.39,10.416,10.416,0,0,1-2.632-7.47c.04-.852-.273-1.018-1.053-1.011-3.913.036-7.827.02-11.741.011a4.731,4.731,0,0,1-1.262-.125,1.7,1.7,0,0,1,.22-3.313,7.7,7.7,0,0,1,1.159-.047c5.115,0,10.23-.019,15.344.015.822.006,1.145-.146,1.127-1.068-.06-3.37-.039-6.742-.011-10.112.006-.641-.149-.863-.831-.862q-15.634.031-31.268,0c-.711,0-.925.2-.918.913.034,3.371.046,6.742,0,10.112-.013.862.3,1.032,1.074,1.017,2.091-.042,4.184-.034,6.276,0a1.758,1.758,0,0,1,1.9,1.752,1.8,1.8,0,0,1-1.848,1.715,21.635,21.635,0,0,1-2.44,0c-.7-.041-1.022.1-1.017.925a10.105,10.105,0,0,1-3.137,7.378c-1.116,1.13-2.249,2.244-3.362,3.378a6.1,6.1,0,0,0-1.893,4.355c-.012,3.913-.046,7.827.012,11.74a5.63,5.63,0,0,0,3.11,4.971c.905.52,1.1.382,1.111-.689.01-1.705-.03-3.411.019-5.114a1.734,1.734,0,1,1,3.467.017c.018.348.006.7.006,1.046v30.455a4.712,4.712,0,0,0,.187,1.721,2.436,2.436,0,0,0,3.238,1.406c1.258-.547,1.507-1.614,1.5-2.868q-.026-13.775-.008-27.549a4.182,4.182,0,0,1,.142-1.5,1.725,1.725,0,0,1,3.127-.251,2.711,2.711,0,0,1,.219,1.473Q6606.071,2858.453,6606.068,2866.416Zm-11.9-9.249c-1.724,1.73-3.245,3.259-4.768,4.786-1.166,1.167-2.185,1.36-3,.571-.86-.832-.7-1.794.486-2.991,1.149-1.152,2.285-2.317,3.456-3.447.466-.45.354-.619-.191-.85a5.878,5.878,0,0,0-6.413,1.395c-2.621,2.584-5.2,5.208-7.809,7.805a6.577,6.577,0,0,0-1.981,4.8c-.013,1.627,0,3.254-.009,4.882a9.827,9.827,0,0,1-2.885,7.124c-.705.71-.478,1.037.095,1.6q7.334,7.293,14.624,14.633c.79.794,1.524,1.644,2.347,2.535a11.6,11.6,0,0,1,8.617-4.343,4.267,4.267,0,0,0,2.43-1.022c2.3-1.936,4.279-4.191,6.488-6.336a4.886,4.886,0,0,1-2.187-2.209c-.479-1.329-1.031-1.631-2.549-1.374-3.764.641-6.733-2.186-6.744-6.113C6594.151,2871.568,6594.164,2864.521,6594.164,2857.167Zm74.642,33.012c-.168-.195-.307-.375-.465-.535-2.46-2.468-4.936-4.919-7.372-7.41-.492-.5-.751-.388-1.187.049q-11.019,11.073-22.078,22.1c-.575.572-.458.858.047,1.354q3.6,3.54,7.139,7.15c.474.483.737.583,1.275.041q11.048-11.125,22.141-22.2C6668.466,2890.566,6668.612,2890.392,6668.806,2890.179Z" transform="translate(-6553.207 -2800.607)" fill="#e94133"/>
      <path id="Path_66" data-name="Path 66" d="M6663.795,3246.466a1.834,1.834,0,0,1-1.811-1.85,1.854,1.854,0,1,1,3.707.083A1.842,1.842,0,0,1,6663.795,3246.466Z" transform="translate(-6636.631 -3139.706)" fill="#e94133"/>
      <path id="Path_67" data-name="Path 67" d="M6914.024,2896.715a1.823,1.823,0,0,1,1.792,1.748,1.745,1.745,0,0,1-3.488.07A1.748,1.748,0,0,1,6914.024,2896.715Z" transform="translate(-6828.625 -2874.315)" fill="#e94133"/>
      <path id="Path_68" data-name="Path 68" d="M6635.5,2939.754a1.806,1.806,0,0,1-1.808,1.729,1.772,1.772,0,0,1-1.678-1.843,1.75,1.75,0,0,1,1.745-1.648A1.731,1.731,0,0,1,6635.5,2939.754Z" transform="translate(-6613.646 -2905.971)" fill="#e94133"/>
      <path id="Path_69" data-name="Path 69" d="M6974.348,2970.954a1.739,1.739,0,0,1-3.477.1,1.72,1.72,0,0,1,1.672-1.825A1.783,1.783,0,0,1,6974.348,2970.954Z" transform="translate(-6873.522 -2929.926)" fill="#e94133"/>
      <path id="Path_70" data-name="Path 70" d="M6608.274,2992.924a1.772,1.772,0,0,1-1.774,1.749,1.7,1.7,0,0,1-1.7-1.679,1.735,1.735,0,0,1,1.689-1.815A1.778,1.778,0,0,1,6608.274,2992.924Z" transform="translate(-6592.776 -2946.761)" fill="#e94133"/>
      <path id="Path_71" data-name="Path 71" d="M6872.784,3238.09a1.743,1.743,0,0,1,.18-3.481,1.763,1.763,0,0,1,1.691,1.823A1.8,1.8,0,0,1,6872.784,3238.09Z" transform="translate(-6797.064 -3133.453)" fill="#e94133"/>
      <path id="Path_72" data-name="Path 72" d="M6938.953,2919.434a1.67,1.67,0,0,1-1.755,1.72,1.78,1.78,0,0,1-1.729-1.679,1.815,1.815,0,0,1,1.734-1.808A1.759,1.759,0,0,1,6938.953,2919.434Z" transform="translate(-6846.371 -2890.383)" fill="#e94133"/>
      <path id="Path_73" data-name="Path 73" d="M6985.453,3000.241a1.74,1.74,0,0,1-1.834,1.673,1.675,1.675,0,0,1-1.632-1.842,1.73,1.73,0,0,1,1.739-1.647A1.82,1.82,0,0,1,6985.453,3000.241Z" transform="translate(-6882.046 -2952.318)" fill="#e94133"/>
      <path id="Path_74" data-name="Path 74" d="M6596.535,3053.653a1.675,1.675,0,0,1-1.729-1.749,1.744,1.744,0,0,1,1.654-1.74,1.8,1.8,0,0,1,1.812,1.722A1.727,1.727,0,0,1,6596.535,3053.653Z" transform="translate(-6585.11 -2991.997)" fill="#e94133"/>
      <path id="Path_75" data-name="Path 75" d="M6602.845,3111.266a1.663,1.663,0,0,1,1.865-1.6,1.741,1.741,0,0,1,1.6,1.782,1.816,1.816,0,0,1-1.84,1.7A1.761,1.761,0,0,1,6602.845,3111.266Z" transform="translate(-6591.274 -3037.63)" fill="#e94133"/>
      <path id="Path_76" data-name="Path 76" d="M6727.237,3239.5a1.738,1.738,0,0,1,1.725,1.777,1.8,1.8,0,0,1-1.827,1.7,1.768,1.768,0,0,1-1.646-1.751A1.676,1.676,0,0,1,6727.237,3239.5Z" transform="translate(-6685.335 -3137.205)" fill="#e94133"/>
      <path id="Path_77" data-name="Path 77" d="M6844.657,3244.5a1.679,1.679,0,0,1,1.683,1.791,1.747,1.747,0,0,1-1.711,1.682,1.8,1.8,0,0,1-1.771-1.763A1.742,1.742,0,0,1,6844.657,3244.5Z" transform="translate(-6775.348 -3141.038)" fill="#e94133"/>
      <path id="Path_78" data-name="Path 78" d="M6653.105,2918.56a1.8,1.8,0,0,1-1.741-1.789,1.748,1.748,0,0,1,1.819-1.689,1.664,1.664,0,0,1,1.658,1.7A1.759,1.759,0,0,1,6653.105,2918.56Z" transform="translate(-6628.486 -2888.399)" fill="#e94133"/>
      <path id="Path_79" data-name="Path 79" d="M6757.566,3249.138a1.752,1.752,0,0,1-1.74,1.773,1.82,1.82,0,0,1-1.748-1.793,1.723,1.723,0,0,1,1.707-1.681A1.68,1.68,0,0,1,6757.566,3249.138Z" transform="translate(-6707.26 -3143.291)" fill="#e94133"/>
      <path id="Path_80" data-name="Path 80" d="M6675.69,2898.8a1.787,1.787,0,0,1-1.723-1.811,1.758,1.758,0,0,1,1.841-1.676,1.706,1.706,0,0,1,1.649,1.729A1.782,1.782,0,0,1,6675.69,2898.8Z" transform="translate(-6645.82 -2873.241)" fill="#e94133"/>
      <path id="Path_81" data-name="Path 81" d="M6958.733,2943.888a1.743,1.743,0,1,1-3.484-.062,1.71,1.71,0,0,1,1.705-1.672A1.755,1.755,0,0,1,6958.733,2943.888Z" transform="translate(-6861.542 -2909.164)" fill="#e94133"/>
      <path id="Path_82" data-name="Path 82" d="M6991.17,3063.9a1.766,1.766,0,0,1-1.692-1.825,1.8,1.8,0,0,1,1.749-1.667,1.719,1.719,0,0,1,1.716,1.779A1.7,1.7,0,0,1,6991.17,3063.9Z" transform="translate(-6887.791 -2999.856)" fill="#e94133"/>
      <path id="Path_83" data-name="Path 83" d="M6817.084,3251.52a1.745,1.745,0,0,1-3.488.084,1.745,1.745,0,1,1,3.488-.084Z" transform="translate(-6752.905 -3145.089)" fill="#e94133"/>
      <path id="Path_84" data-name="Path 84" d="M6785.54,3250.773a1.754,1.754,0,0,1,1.693,1.815,1.692,1.692,0,0,1-1.825,1.652,1.752,1.752,0,0,1-1.658-1.73A1.789,1.789,0,0,1,6785.54,3250.773Z" transform="translate(-6730.016 -3145.85)" fill="#e94133"/>
      <path id="Path_85" data-name="Path 85" d="M6887.877,2883.15a1.689,1.689,0,0,1-1.784-1.7,1.753,1.753,0,0,1,1.726-1.78,1.823,1.823,0,0,1,1.75,1.788A1.721,1.721,0,0,1,6887.877,2883.15Z" transform="translate(-6808.505 -2861.246)" fill="#e94133"/>
      <path id="Path_86" data-name="Path 86" d="M6619.732,2965.186a1.69,1.69,0,0,1-1.751,1.734,1.752,1.752,0,0,1-1.729-1.666,1.846,1.846,0,0,1,1.726-1.824A1.748,1.748,0,0,1,6619.732,2965.186Z" transform="translate(-6601.558 -2925.479)" fill="#e94133"/>
      <path id="Path_87" data-name="Path 87" d="M6600.882,3022.017a1.679,1.679,0,0,1-1.75,1.729,1.729,1.729,0,0,1-1.717-1.673,1.819,1.819,0,0,1,1.72-1.821A1.752,1.752,0,0,1,6600.882,3022.017Z" transform="translate(-6587.111 -2969.059)" fill="#e94133"/>
      <path id="Path_88" data-name="Path 88" d="M6599.889,3081.847a1.674,1.674,0,0,1-1.708,1.766,1.736,1.736,0,0,1-1.76-1.746,1.828,1.828,0,0,1,1.682-1.743A1.752,1.752,0,0,1,6599.889,3081.847Z" transform="translate(-6586.349 -3014.975)" fill="#e94133"/>
      <path id="Path_89" data-name="Path 89" d="M6702.873,2880.968a1.736,1.736,0,1,1-3.472.007,1.7,1.7,0,0,1,1.793-1.717A1.682,1.682,0,0,1,6702.873,2880.968Z" transform="translate(-6665.328 -2860.926)" fill="#e94133"/>
      <path id="Path_90" data-name="Path 90" d="M6991.665,3030.915a1.739,1.739,0,1,1-1.737-1.788A1.75,1.75,0,0,1,6991.665,3030.915Z" transform="translate(-6886.804 -2975.865)" fill="#e94133"/>
      <path id="Path_91" data-name="Path 91" d="M6748.5,2833.457a1.859,1.859,0,0,1,1.873,1.8,1.941,1.941,0,0,1-1.914,1.908,1.865,1.865,0,0,1-1.785-1.888A1.8,1.8,0,0,1,6748.5,2833.457Z" transform="translate(-6701.584 -2825.801)" fill="#e94133"/>
      <path id="Path_92" data-name="Path 92" d="M7009.464,3178.273a1.908,1.908,0,0,1-1.874-1.845,1.829,1.829,0,0,1,1.826-1.854,1.789,1.789,0,0,1,1.854,1.807A1.859,1.859,0,0,1,7009.464,3178.273Z" transform="translate(-6901.684 -3087.411)" fill="#e94133"/>
    </g>
  </g>
</svg>
