<svg xmlns="http://www.w3.org/2000/svg" width="116.778" height="116.784" viewBox="0 0 116.778 116.784">
  <g id="DC5HkZ" transform="translate(-6680.102 -2574.814)">
    <g id="Group_13794" data-name="Group 13794" transform="translate(6680.102 2574.814)">
      <path id="Path_100" data-name="Path 100" d="M7031.256,2601.616a5.535,5.535,0,0,0-.621,2.339,23.6,23.6,0,1,1,.379-8.823c.034.2-.079.475.242.554Zm-23.7,17.174a20.219,20.219,0,1,0-20.156-20.231A20.229,20.229,0,0,0,7007.556,2618.79Z" transform="translate(-6914.478 -2574.923)" fill="#fcbb03"/>
      <path id="Path_101" data-name="Path 101" d="M7004.729,2925.985a5.563,5.563,0,0,0-2.339-.62,23.657,23.657,0,1,1,28.79-26.4c.03.2-.079.473.235.561v5.93c-.428.3-.319.808-.409,1.217q-3.087,14.06-16.8,18.395c-1.23.39-2.513.614-3.772.916Zm-17.17-23.718a20.216,20.216,0,1,0,20.245-20.144A20.223,20.223,0,0,0,6987.559,2902.267Z" transform="translate(-6914.636 -2809.2)" fill="#fcbb03"/>
      <path id="Path_102" data-name="Path 102" d="M6700.632,2926.165c-.679-.562-1.553-.45-2.332-.634a23.771,23.771,0,1,1,8.367.411c-.159.019-.294.04-.333.222Zm23.329-23.608a20.217,20.217,0,1,0-20.336,20.184A20.183,20.183,0,0,0,6723.96,2902.557Z" transform="translate(-6680.102 -2809.38)" fill="#fcbb03"/>
      <path id="Path_103" data-name="Path 103" d="M6727.438,2598.565a23.629,23.629,0,1,1-22.05-23.695,23.03,23.03,0,0,1,10.923,3.545c1.287.817,1.656,1.741,1.053,2.681-.62.968-1.516,1.032-2.878.207a20.2,20.2,0,1,0-10.455,37.35c7.919-.154,13.933-3.822,17.619-10.8,3.668-6.939,3.156-13.882-.988-20.548-.12-.193-.26-.374-.375-.57a1.746,1.746,0,0,1,.422-2.5,1.675,1.675,0,0,1,2.383.56,21.533,21.533,0,0,1,2.456,4.348A23.17,23.17,0,0,1,6727.438,2598.565Z" transform="translate(-6680.155 -2574.814)" fill="#fcbb03"/>
      <path id="Path_104" data-name="Path 104" d="M6746.816,2646.257c-2.885,0-5.771.007-8.656,0-1.548-.005-2.141-.588-2.144-2.119-.009-3.986.009-7.972-.012-11.959a2.377,2.377,0,0,1,1.014-2.03c2.833-2.229,5.634-4.5,8.451-6.745,1.132-.9,1.674-.918,2.819-.008,2.823,2.241,5.624,4.51,8.452,6.744a2.373,2.373,0,0,1,.985,2.043c-.029,3.986-.007,7.972-.016,11.959,0,1.56-.56,2.112-2.122,2.117C6752.663,2646.265,6749.739,2646.258,6746.816,2646.257Zm0-3.424c2.2,0,4.4-.029,6.6.017.691.014.9-.152.888-.871-.044-2.884-.026-5.769-.01-8.653a1.3,1.3,0,0,0-.508-1.169q-3.176-2.494-6.3-5.052a.808.808,0,0,0-1.235.027q-3.075,2.529-6.218,4.976a1.383,1.383,0,0,0-.608,1.228c.028,2.884.042,5.77-.006,8.653-.012.742.242.87.906.858C6742.486,2642.809,6744.649,2642.833,6746.813,2642.833Z" transform="translate(-6723.225 -2611.767)" fill="#fcbb03"/>
      <path id="Path_105" data-name="Path 105" d="M6880.227,2798.748c2.279,0,4.558-.014,6.836,0,5.6.041,9.42,3.852,9.463,9.454.022,2.81.026,5.621-.005,8.432-.016,1.463-1.078,2.3-2.283,1.877a1.737,1.737,0,0,1-1.137-1.892c.011-2.7.006-5.394,0-8.09-.005-4.107-2.236-6.353-6.318-6.355q-6.665-.005-13.332,0c-3.937.006-6.2,2.28-6.209,6.232-.006,2.7.006,5.393,0,8.09-.006,1.349-.629,2.118-1.679,2.127s-1.75-.786-1.735-2.1c.038-3.3-.22-6.615.127-9.9a8.7,8.7,0,0,1,7.96-7.765c2.76-.181,5.542-.034,8.313-.034Z" transform="translate(-6821.784 -2747.553)" fill="#fcbb03"/>
      <path id="Path_106" data-name="Path 106" d="M6911.28,2741.134a7.192,7.192,0,1,1,7.164-7.176A7.181,7.181,0,0,1,6911.28,2741.134Zm-.086-3.426a3.738,3.738,0,0,0,3.823-3.7,3.768,3.768,0,1,0-7.536-.109A3.741,3.741,0,0,0,6911.194,2737.708Z" transform="translate(-6852.86 -2692.019)" fill="#fcbb03"/>
      <path id="Path_107" data-name="Path 107" d="M6895.979,2845.915c0-1.667-.019-3.334,0-5,.02-1.326.687-2.062,1.77-2.032,1.041.029,1.64.728,1.646,2.024q.023,5.172,0,10.344c-.007,1.241-.682,2-1.694,2s-1.7-.761-1.718-1.99C6895.958,2849.477,6895.979,2847.7,6895.979,2845.915Z" transform="translate(-6846.625 -2778.516)" fill="#fcbb03"/>
      <path id="Path_108" data-name="Path 108" d="M6960.054,2845.993c0-1.7-.016-3.41.006-5.115.015-1.282.627-1.982,1.674-1.994s1.728.694,1.737,1.949q.037,5.228,0,10.457a1.754,1.754,0,0,1-1.748,1.959c-1.008-.021-1.649-.774-1.663-2.027C6960.039,2849.479,6960.054,2847.736,6960.054,2845.993Z" transform="translate(-6896.053 -2778.518)" fill="#fcbb03"/>
      <path id="Path_109" data-name="Path 109" d="M7065.7,2621.462c0,1.762.017,3.541-.009,5.318-.01.687.547.644.924.783a6.392,6.392,0,0,1,4.376,4.551,7.13,7.13,0,0,1-4.386,8.288,1.2,1.2,0,0,0-.929,1.379c.039,1.32-.664,2.06-1.754,2.036-1.062-.024-1.647-.684-1.628-2.018.011-.717-.177-.959-.925-1.038a7.538,7.538,0,0,1-3.525-1.489,1.7,1.7,0,1,1,1.747-2.921c2.684,1.3,2.684,1.3,2.684-1.716,0-1.406-.036-2.812.016-4.215a1.181,1.181,0,0,0-.8-1.285c-1.875-.889-3.427-2.078-3.806-4.33a6.118,6.118,0,0,1,3.694-6.728c.668-.261.943-.524.92-1.262a1.713,1.713,0,0,1,1.684-1.988c1.008.008,1.7.748,1.7,2,0,.681.228.9.86,1.036a6.656,6.656,0,0,1,1.777.729,1.739,1.739,0,0,1,.77,2.336,1.763,1.763,0,0,1-2.232.833C7066.5,2621.65,7066.2,2621.355,7065.7,2621.462Zm0,9.49v6.079a3.757,3.757,0,0,0,2.045-3.665A2.773,2.773,0,0,0,7065.7,2630.952Zm-3.477-9.458c-1.633,1.522-1.584,3.233,0,3.98Z" transform="translate(-6970.85 -2605.681)" fill="#fcbb03"/>
      <path id="Path_110" data-name="Path 110" d="M7044.72,2958.32c-2.317,0-4.634.013-6.951,0a3.553,3.553,0,0,1-3.833-3.832q-.025-4.216,0-8.432a1.565,1.565,0,0,0-.628-1.453,3.093,3.093,0,0,1-1.2-2.588c0-.721-.021-1.444.013-2.165a5.227,5.227,0,0,1,5.055-5.031c2.468-.062,4.938-.031,7.407-.015a1.725,1.725,0,0,1,1.9,1.675,1.757,1.757,0,0,1-1.879,1.729c-2.164.036-4.33.009-6.5.013a2.516,2.516,0,0,0-2.572,3.584.444.444,0,0,0,.384.329c1.214.277,1.443,1.174,1.438,2.251-.014,3.191.016,6.382-.021,9.572-.008.717.143.97.924.963q6.5-.061,12.99,0c.851.009.978-.293.97-1.042-.039-3.228,0-6.457-.025-9.686a1.819,1.819,0,0,1,1.376-2.062c.137-.037.314-.072.387-.171.738-1.013-.2-3.4-1.453-3.7-.257-.06-.531-.05-.785-.121a1.691,1.691,0,0,1,.383-3.343,5.314,5.314,0,0,1,5.326,5.023c.1,1.888.31,3.854-1.616,5.136-.336.223-.179.635-.18.961-.01,2.811,0,5.622-.008,8.433a3.635,3.635,0,0,1-3.956,3.969C7049.354,2958.33,7047.037,2958.32,7044.72,2958.32Z" transform="translate(-6951.637 -2852.491)" fill="#fcbb03"/>
      <path id="Path_111" data-name="Path 111" d="M6733.3,2934.807a7.661,7.661,0,0,1,4.314,1.228,1.01,1.01,0,0,0,1.285.058,8.294,8.294,0,0,1,10.022.833,8.381,8.381,0,0,1,2.026,9.771,17.847,17.847,0,0,1-4.17,5.636,42.939,42.939,0,0,1-7.223,5.524,2.01,2.01,0,0,1-2.334.1,37.683,37.683,0,0,1-9.352-7.728,10.939,10.939,0,0,1-2.992-6.962A8.347,8.347,0,0,1,6733.3,2934.807Zm0,3.424a4.906,4.906,0,0,0-4.792,3.5c-.624,1.974.081,3.67,1.178,5.236a29.872,29.872,0,0,0,8.16,7.358c.483.325.77.081,1.112-.145a38.078,38.078,0,0,0,4.95-3.831,15.218,15.218,0,0,0,3.887-5,4.959,4.959,0,0,0-8.014-5.625c-1.155,1.086-1.848,1.094-3.012-.027A4.8,4.8,0,0,0,6733.3,2938.231Z" transform="translate(-6714.639 -2852.502)" fill="#fcbb03"/>
      <path id="Path_112" data-name="Path 112" d="M6779.4,2673.424c0,1.833-.458,2.567-1.639,2.6-1.226.035-1.78-.777-1.78-2.6a8.237,8.237,0,0,1,.018-1.025,1.76,1.76,0,0,1,1.766-1.6,1.717,1.717,0,0,1,1.632,1.718C6779.421,2672.815,6779.4,2673.12,6779.4,2673.424Z" transform="translate(-6754.062 -2648.853)" fill="#fcbb03"/>
    </g>
  </g>
</svg>
