<svg id="sharing" xmlns="http://www.w3.org/2000/svg" width="84.905" height="81.769" viewBox="0 0 84.905 81.769">
  <path id="Path_20" data-name="Path 20" d="M38.075,40.321H32.716l2.83,2.83h2.529a4.25,4.25,0,0,0,4.245-4.245v-2.83a4.25,4.25,0,0,0-4.245-4.245h-2.83a1.416,1.416,0,0,1-1.415-1.415V29H31v1.415a4.25,4.25,0,0,0,4.245,4.245h2.83a1.416,1.416,0,0,1,1.415,1.415v2.83A1.416,1.416,0,0,1,38.075,40.321Z" transform="translate(8.622 7.486)" fill="#4085f5"/>
  <path id="Path_21" data-name="Path 21" d="M14.6,40.321H9.245A1.416,1.416,0,0,1,7.83,38.906v-2.83A1.416,1.416,0,0,1,9.245,34.66h2.83a4.25,4.25,0,0,0,4.245-4.245V29H13.49v1.415a1.416,1.416,0,0,1-1.415,1.415H9.245A4.25,4.25,0,0,0,5,36.075v2.83a4.25,4.25,0,0,0,4.245,4.245h2.529Z" transform="translate(-2.17 7.486)" fill="#4085f5"/>
  <path id="Path_22" data-name="Path 22" d="M27.245,20.66h2.83V31.981H41.4V20.66h2.83V31.981h4.245V27.736a12.736,12.736,0,0,0-25.471,0v4.245h4.245Z" transform="translate(5.302 1.675)" fill="#4085f5"/>
  <path id="Path_23" data-name="Path 23" d="M7.245,20.66h2.83V31.981H21.4V20.66h2.83V31.981h4.245V27.736A12.736,12.736,0,0,0,3,27.736v4.245H7.245Z" transform="translate(-3 1.675)" fill="#4085f5"/>
  <circle id="Ellipse_5" data-name="Ellipse 5" cx="7.123" cy="7.123" r="7.123" transform="translate(34.501 0)" fill="#4085f5"/>
  <ellipse id="Ellipse_6" data-name="Ellipse 6" cx="7.742" cy="7.123" rx="7.742" ry="7.123" transform="translate(4.771 0)" fill="#4085f5"/>
  <ellipse id="Ellipse_7" data-name="Ellipse 7" cx="8.981" cy="8.052" rx="8.981" ry="8.052" transform="translate(56.179 39.639)" fill="#4085f5"/>
  <path id="Path_24" data-name="Path 24" d="M63.622,45h-37.5a2.123,2.123,0,1,0,0,4.245h18.4A4.958,4.958,0,0,1,49.471,54.2V67.641H69.283V52.075h2.83V67.641h4.245V57.736A12.749,12.749,0,0,0,63.622,45Z" transform="translate(5.717 14.127)" fill="#4085f5"/>
  <path id="Path_25" data-name="Path 25" d="M27.4,66.132A12.736,12.736,0,1,1,37.952,46.321h3.294c-.013-.025-.023-.051-.037-.076l-.367-.7L42.619,42.6l-4.433-4.433-2.935,1.776-.7-.367a15.416,15.416,0,0,0-2.441-1.022l-.758-.239L30.532,35H24.26l-.816,3.321-.758.239a15.527,15.527,0,0,0-2.441,1.022l-.7.367L16.6,38.173l-4.433,4.433,1.776,2.935-.367.7a15.416,15.416,0,0,0-1.022,2.441l-.239.758L9,50.26v6.272l3.321.817.239.758a15.528,15.528,0,0,0,1.022,2.441l.367.7-1.776,2.935,4.433,4.433,2.935-1.776.7.367a15.366,15.366,0,0,0,2.444,1.023l.756.241.815,3.317h6.272l.817-3.321.758-.239a15.526,15.526,0,0,0,2.441-1.022l.7-.366,2.935,1.776,4.433-4.433-1.776-2.935.367-.7A15.365,15.365,0,0,0,42.235,58.1l.241-.756,3.317-.815v-.306H39.813A12.751,12.751,0,0,1,27.4,66.132Z" transform="translate(-0.51 9.977)" fill="#4085f5"/>
  <path id="Path_26" data-name="Path 26" d="M31.827,43.83A9.9,9.9,0,1,0,34.4,53.736H31.388a7.078,7.078,0,1,1-3.751-9.355,4.9,4.9,0,0,1,2.222-.55Z" transform="translate(1.981 12.467)" fill="#4085f5"/>
  <path id="Path_27" data-name="Path 27" d="M23.245,45a4.245,4.245,0,1,0,3.381,6.8,4.942,4.942,0,0,1-3.381-4.673,4.885,4.885,0,0,1,.464-2.062A3.969,3.969,0,0,0,23.245,45Z" transform="translate(3.641 14.127)" fill="#4085f5"/>
  <path id="Path_28" data-name="Path 28" d="M70.471,22.906A9.918,9.918,0,0,0,60.566,13h-5.66A9.918,9.918,0,0,0,45,22.906v9.906H60.566A9.918,9.918,0,0,0,70.471,22.906Zm-5.66,4.245h-2.83v-2.83h2.83ZM50.66,18.66H64.811v2.83H50.66Zm2.83,8.49H50.66v-2.83h2.83Zm5.66,0h-2.83v-2.83h2.83Z" transform="translate(14.433 0.845)" fill="#4085f5"/>
</svg>
