<svg xmlns="http://www.w3.org/2000/svg" width="116.409" height="116.362" viewBox="0 0 116.409 116.362">
  <g id="_4isuF6" data-name="4isuF6" transform="translate(-6648.663 -2822.448)">
    <g id="Group_13791" data-name="Group 13791" transform="translate(6648.663 2822.448)">
      <path id="Path_93" data-name="Path 93" d="M6900.867,2822.448a23.278,23.278,0,0,0,4.177.613,58.218,58.218,0,0,1,48.489,45.719,53.722,53.722,0,0,1,.972,6.734c.016.2-.084.47.222.566v9.318a13.882,13.882,0,0,0-.62,3.716,57.963,57.963,0,0,1-9.411,24.183,2.416,2.416,0,0,1-1.917,1.237,2.121,2.121,0,0,1-2.095-1.086,2.193,2.193,0,0,1,.094-2.462,63.853,63.853,0,0,0,3.63-6.144,53.611,53.611,0,0,0-12.535-64.517,53.014,53.014,0,0,0-34.6-13.326c-1.707-.037-2.544-.493-2.9-1.634-.346-1.1.122-2.01,1.493-2.919Z" transform="translate(-6838.318 -2822.448)" fill="#4185f4"/>
      <path id="Path_94" data-name="Path 94" d="M6671.043,2875.01a35.2,35.2,0,0,1-7.16,1.585,25.926,25.926,0,0,1-7.015-.216c-.759-.132-1.058-.012-1.273.735-4.446,15.485-2.713,30.219,5.752,43.943a51.659,51.659,0,0,0,31.708,23.569c15.536,4.1,30.125,1.583,43.623-7.164.159-.1.313-.213.475-.312a2.279,2.279,0,1,1,2.509,3.787,57.319,57.319,0,0,1-9.82,5.385,58.136,58.136,0,0,1-78.943-37.663,56.99,56.99,0,0,1,.566-33.436,6.933,6.933,0,0,0,.254-3.411,28.392,28.392,0,0,1,21.722-32.784,27.786,27.786,0,0,1,13.374.163,2.458,2.458,0,0,1,1.962,1.941,28.636,28.636,0,0,1-.163,14.809,3.642,3.642,0,0,0-.328,1.417,40.029,40.029,0,0,1,46.806,63.832,40.017,40.017,0,0,1-64.048-46.183Zm-15.163-7.355a58.26,58.26,0,0,1,6.728-8.122,46.8,46.8,0,0,1,9.045-6.985c1.545-.916,2.82-.741,3.568.476.766,1.247.3,2.495-1.28,3.455-.161.1-.329.185-.489.285a42.61,42.61,0,0,0-14.223,14.382c-.459.76-.368,1,.544,1.023a25.668,25.668,0,0,0,5.426-.341c13.159-2.513,21.348-13.855,19.682-27.18a1.53,1.53,0,0,0-1.578-1.559,23.522,23.522,0,0,0-15.508,2.985C6659.651,2850.917,6655.886,2858.267,6655.88,2867.655Zm26.753,35.489c2.988,0,5.977-.01,8.965.009.616,0,.921-.021.852-.839a113.187,113.187,0,0,1,0-18.925c.058-.687-.123-.822-.757-.82q-8.965.028-17.93,0c-.573,0-.843.128-1.013.748a35.485,35.485,0,0,0,.012,19.143c.173.633.453.705,1.023.7C6676.733,2903.127,6679.683,2903.145,6682.634,2903.144Zm48.426,0c2.988,0,5.977-.02,8.964.017.592.007.839-.109,1.007-.721a35.433,35.433,0,0,0,0-19.142c-.149-.541-.355-.731-.912-.729q-9.021.025-18.042,0c-.668,0-.788.187-.733.841a114.421,114.421,0,0,1,0,18.812c-.066.794.131.946.863.938C6725.159,2903.124,6728.109,2903.144,6731.06,2903.145Zm-24.08-20.565c-3.028,0-6.056.018-9.084-.015-.624-.007-.875.173-.9.8-.042,1.058-.163,2.113-.218,3.17a115.676,115.676,0,0,0,.207,15.654c.043.519.026.983.852.977,6.056-.041,12.112-.028,18.168-.01.528,0,.74-.151.767-.683.058-1.133.187-2.263.243-3.4a121.385,121.385,0,0,0-.2-15.542c-.06-.762-.318-.989-1.095-.975C6712.809,2882.61,6709.894,2882.58,6706.979,2882.58Zm-.136-4.547c2.764,0,5.527-.026,8.29.016.779.011,1.032-.114.888-.984a62.16,62.16,0,0,0-2.837-11.414,18.51,18.51,0,0,0-3.993-7.04c-1.622-1.61-2.974-1.594-4.611.006a13.7,13.7,0,0,0-2.7,4.026,54.1,54.1,0,0,0-4.112,14.436c-.152.906.158.977.9.968C6701.392,2878.012,6704.118,2878.033,6706.843,2878.033Zm.048,29.658c-2.763,0-5.527.016-8.29-.011-.693-.007-.989.052-.846.917a61.678,61.678,0,0,0,2.955,11.73c.962,2.556,2.036,5.062,4.092,6.969,1.48,1.374,2.7,1.358,4.19,0a13.163,13.163,0,0,0,2.935-4.27,54.3,54.3,0,0,0,4.1-14.437c.147-.871-.164-.919-.85-.913C6712.417,2907.706,6709.654,2907.691,6706.892,2907.691Zm-7.9-49.273a1.054,1.054,0,0,0-.3-.044,35.383,35.383,0,0,0-23.493,18.636c-.4.767-.482,1.053.588,1.044q8.122-.07,16.245.007c.878.01,1.1-.322,1.187-1.054a60.184,60.184,0,0,1,1.312-6.9A43.087,43.087,0,0,1,6698.99,2858.418Zm15.819-.1c.642,1.307,1.288,2.49,1.816,3.723a59.131,59.131,0,0,1,3.927,14.737c.093.63.013,1.293,1.092,1.281,5.49-.061,10.981-.047,16.472-.01.943.006.873-.271.534-.941a35.7,35.7,0,0,0-9.537-11.841A35.018,35.018,0,0,0,6714.809,2858.319Zm-.1,69.17c11.248-2.946,19.26-9.439,24.4-19.8-5.89,0-11.527.031-17.165-.03-.985-.011-1.275.3-1.407,1.2C6719.6,2915.291,6718.073,2921.54,6714.707,2927.49Zm-30.736-19.8c-2.725,0-5.451.041-8.175-.021-1.028-.023-1.017.229-.608,1.035a35.649,35.649,0,0,0,12.789,14.118,34.841,34.841,0,0,0,9.81,4.3c.275.074.629.264.857.006.258-.29-.081-.55-.2-.805-.436-.92-.926-1.816-1.324-2.751a56.75,56.75,0,0,1-3.86-14.627c-.131-.956-.421-1.315-1.455-1.28C6689.2,2907.75,6686.582,2907.691,6683.971,2907.691Z" transform="translate(-6648.663 -2834.684)" fill="#4185f4"/>
      <path id="Path_95" data-name="Path 95" d="M7070.188,3246a2.3,2.3,0,0,1-2.285-2.191,2.266,2.266,0,0,1,2.237-2.341,2.266,2.266,0,1,1,.048,4.532Z" transform="translate(-6972.402 -3146.015)" fill="#4185f4"/>
    </g>
  </g>
</svg>
