<svg xmlns="http://www.w3.org/2000/svg" width="97.466" height="116.726" viewBox="0 0 97.466 116.726">
  <g id="cjZWnp" transform="translate(-6683.788 -2494.983)">
    <g id="Group_13792" data-name="Group 13792" transform="translate(6683.788 2494.983)">
      <path id="Path_96" data-name="Path 96" d="M6691.27,2611.709c-.092-.346-.428-.275-.653-.35a9.378,9.378,0,0,1-6.822-9.52q-.011-20.859,0-41.718a17.052,17.052,0,0,1,.407-4.974,9.2,9.2,0,0,1,8.492-6.6c3.72-.087,7.445-.076,11.166-.014,1.1.018,1.512-.181,1.46-1.4-.11-2.617-.044-5.241-.031-7.863.022-5.163,3.233-8.365,8.4-8.39,1.724-.008,1.719-.008,1.741-1.729.027-2.241.135-4.484.077-6.723a5.934,5.934,0,0,1,2.825-5.262c1.732-1.227,3.484-2.432,5.195-3.69a3.806,3.806,0,0,0,1.125-3.8c-.121-.348-.437-.394-.674-.556a3.644,3.644,0,0,1-1.695-3.169c0-2.431-.027-4.863.008-7.294a3.6,3.6,0,0,1,3.708-3.656q11.794-.026,23.588,0a3.58,3.58,0,0,1,3.694,3.655q.042,3.7,0,7.408a3.457,3.457,0,0,1-2.954,3.508c-.6.1-.722.315-.721.858.01,6.535-.007,13.069.144,19.6.017.729.253.894.922.861a11.93,11.93,0,0,1,3.4.213,7.837,7.837,0,0,1,5.988,7.757c.029,2.887.036,5.776-.014,8.662-.013.811.231,1.009,1.017,1,3.457-.042,6.914-.033,10.37-.015,5.911.031,9.817,3.964,9.819,9.894q.012,21.714,0,43.428c0,4.68-2.65,8.335-6.812,9.537-.369.106-.853-.1-1.118.345Zm-3.829-50.1c0,13.475,0,26.773,0,40.07,0,4.1,2.3,6.382,6.438,6.382h77.147c4.33,0,6.576-2.253,6.577-6.6q0-19.32,0-38.64v-1.241c-.759.52-1.369.948-1.99,1.361q-13.646,9.064-27.295,18.123c-1.6,1.065-2.7,1.062-3.359-.014-.639-1.037-.2-2,1.332-3.015q13.793-9.151,27.58-18.312a6.578,6.578,0,0,0,2.2-2.109,3.157,3.157,0,0,0-1.061-4.539,6.18,6.18,0,0,0-3.572-.929q-10.937.023-21.875.008-28.031,0-56.062,0a10,10,0,0,0-1.251.058c-2.6.329-4.158,2.145-3.7,4.34a4.957,4.957,0,0,0,2.415,3.034q6.582,4.38,13.172,8.75,7.488,4.971,14.979,9.936a2.071,2.071,0,0,1,1.208,2.017c-.171,1.5-1.695,2.033-3.13,1.082q-8.963-5.938-17.913-11.9C6695.377,2566.885,6691.473,2564.289,6687.44,2561.608ZM6746.2,2524.4h-.257c0-4.558-.022-9.115.019-13.672.008-.825-.159-1.1-1.046-1.09q-7.746.068-15.492,0c-.9-.008-1.2.231-1.126,1.135a6.136,6.136,0,0,1-2.939,5.895c-1.6,1.082-3.155,2.237-4.755,3.322a3,3,0,0,0-1.5,2.838c.086,1.894-.013,3.8-.029,5.695-.021,2.357-.02,2.362,2.312,2.354.868,0,2,.287,2.532-.145.571-.46.162-1.637.184-2.5.039-1.51.7-2.367,1.875-2.34,1.131.026,1.775.849,1.778,2.3q.012,5.754.013,11.507c0,1.711.164,1.9,1.927,1.781q7.042-.5,14.078-1.065c1.865-.148,2.434-.815,2.433-2.692Q6746.2,2531.061,6746.2,2524.4Zm-8.55-18.391q5.583,0,11.166,0c.484,0,.856.042.835-.684-.056-2.012-.043-4.027,0-6.04.011-.608-.251-.656-.742-.655q-11.109.017-22.218-.008c-.7,0-.789.262-.778.856.033,1.823.055,3.649-.007,5.47-.029.822.148,1.1,1.038,1.081C6730.512,2505.972,6734.083,2506.006,6737.653,2506.006Zm11.367,35.708a6.378,6.378,0,0,1-4.021,2.242q-7.939.677-15.894,1.178a4.452,4.452,0,0,1-4.7-3.051.782.782,0,0,0-.878-.614c-2.165.021-4.328.033-6.492-.006-.626-.011-.764.2-.74.778.042,1.024,0,2.05.015,3.075s-.342,2.39.177,2.968c.6.672,2,.207,3.049.209q14.18.025,28.359.005c.523,0,1.162.228,1.134-.755C6748.982,2545.736,6749.021,2543.725,6749.021,2541.715Zm-30.872-7.185c-1.516,0-3.032-.006-4.547,0-3.039.015-4.649,1.6-4.669,4.616-.014,2.2,0,4.4,0,6.607,0,2.832,0,2.8,2.884,2.77.734-.008.878-.251.867-.92-.039-2.088-.015-4.177-.014-6.265,0-2.646.879-3.509,3.565-3.51h5.467c2.579,0,2.557,0,2.428-2.62-.028-.571-.22-.7-.739-.688C6721.641,2534.545,6719.894,2534.53,6718.149,2534.53Zm38.266,8.646c0-1.48.032-2.961-.008-4.439a4.116,4.116,0,0,0-3.837-4.18c-2.724-.271-2.88-.111-2.736,2.614.023.439.1.605.593.718a2.608,2.608,0,0,1,2.231,2.853c.032,1.631.008,3.263.008,4.9,0,3.017,0,3,3,2.883.6-.023.779-.205.765-.791C6756.393,2546.212,6756.415,2544.694,6756.415,2543.176Z" transform="translate(-6683.787 -2494.983)" fill="#33a852"/>
      <path id="Path_97" data-name="Path 97" d="M6876.323,2826.233c0,2.166.021,4.332,0,6.5-.051,4.613-3.273,7.977-7.676,8.041a8.009,8.009,0,0,1-8.337-7.857c-.109-4.633-.063-9.27-.015-13.9a3.712,3.712,0,0,1,3.872-3.767c2.735-.019,5.47-.015,8.2,0a3.728,3.728,0,0,1,3.945,3.926C6876.36,2821.521,6876.322,2823.877,6876.323,2826.233Zm-3.642.194c0-2.2-.018-4.408.011-6.611.008-.631-.064-.957-.841-.939-2.392.054-4.786.037-7.179.008-.6-.008-.771.173-.769.772.024,4.369-.027,8.739.033,13.107a4.364,4.364,0,0,0,4.585,4.358c2.482-.021,4.131-1.763,4.154-4.427C6872.7,2830.606,6872.681,2828.516,6872.681,2826.427Z" transform="translate(-6819.93 -2742.072)" fill="#33a852"/>
      <path id="Path_98" data-name="Path 98" d="M6891.257,2880.842a1.739,1.739,0,0,0-1.853-1.725,1.775,1.775,0,0,0-1.723,1.758,1.8,1.8,0,0,0,1.814,1.8A1.765,1.765,0,0,0,6891.257,2880.842Z" transform="translate(-6841.104 -2791.364)" fill="#33a852"/>
      <path id="Path_99" data-name="Path 99" d="M6891.257,2880.842a1.765,1.765,0,0,1-1.761,1.834,1.8,1.8,0,0,1-1.814-1.8,1.775,1.775,0,0,1,1.723-1.758A1.739,1.739,0,0,1,6891.257,2880.842Z" transform="translate(-6841.104 -2791.364)" fill="#33a852"/>
    </g>
  </g>
</svg>
